<svg aria-hidden="true" style="position: absolute; width: 0; height: 0; overflow: hidden;" version="1.1" xmlns="http://www.w3.org/2000/svg" xmlns:xlink="http://www.w3.org/1999/xlink">
<defs>
<symbol id="icon-logo" viewBox="0 0 102 32">
<path d="M15.861 9.801v-4.9c0-0.541-0.439-0.98-0.98-0.98h-0.98v-2.94c0-0.541-0.439-0.98-0.98-0.98-1.388 0-3.514-0.106-6.009 1.388-1.551-0.462-2.648-0.408-3.795-0.408-0.542 0-0.98 0.439-0.98 0.98v1.96h-0.98c-0.542 0-0.98 0.439-0.98 0.98v4.9c0 3.991 2.999 7.295 6.863 7.778v12.8c0 0.541 0.439 0.98 0.98 0.98s0.98-0.439 0.98-0.98v-3.43h1.471c2.973 0 5.393-2.418 5.393-5.39v-1.47c0-0.541-0.439-0.98-0.98-0.98h-2.451c-1.303 0-2.499 0.464-3.432 1.235v-2.767c3.858-0.478 6.863-3.765 6.863-7.778v0zM13.9 9.801c0 1.744-0.772 3.319-1.991 4.399 0.019-0.157 0.030-0.317 0.030-0.479 0-2.482-0.928-4.75-2.455-6.479 1.295-0.883 2.83-1.361 4.416-1.361v3.92zM11.939 1.962v2.158c-0.181 0.037-0.361 0.079-0.54 0.126-0.636-0.712-1.361-1.318-2.153-1.808 0.856-0.313 1.765-0.476 2.693-0.476v0zM4.096 2.942c1.948 0 3.839 0.711 5.311 2.069-0.486 0.25-0.951 0.542-1.392 0.873-1.14-0.857-2.472-1.471-3.919-1.766v-1.177zM2.135 9.801v-3.92c4.325 0 7.844 3.517 7.844 7.84 0 1.095-0.905 1.987-2.012 1.959-3.444-0.085-5.831-2.82-5.831-5.879zM12.43 21.071h1.471v0.49c0 1.891-1.539 3.43-3.432 3.43h-1.471v-0.49c0-1.891 1.539-3.43 3.432-3.43z"></path>
<path d="M28.197 17.178v2.022h-5.81v-2.022h5.81zM23.323 8.298v10.902h-2.628v-10.902h2.628zM27.448 12.626v1.954h-5.062v-1.954h5.062zM28.22 8.298v2.029h-5.833v-2.029h5.833zM31.761 8.298l1.782 3.624 1.782-3.624h2.995l-3.040 5.406 3.122 5.496h-3.025l-1.834-3.691-1.834 3.691h-3.032l3.13-5.496-3.047-5.406h3.003zM43.823 15.501h-2.711v-2.029h2.711c0.369 0 0.669-0.062 0.899-0.187s0.397-0.297 0.502-0.517c0.11-0.225 0.165-0.477 0.165-0.756 0-0.3-0.055-0.577-0.165-0.831-0.105-0.255-0.272-0.459-0.502-0.614-0.23-0.16-0.529-0.24-0.899-0.24h-1.722v8.873h-2.628v-10.902h4.35c0.874 0 1.625 0.16 2.254 0.479 0.634 0.319 1.121 0.759 1.46 1.318 0.339 0.554 0.509 1.188 0.509 1.902 0 0.704-0.17 1.318-0.509 1.842s-0.826 0.933-1.46 1.228c-0.629 0.29-1.38 0.434-2.254 0.434zM56.866 17.178v2.022h-5.511v-2.022h5.511zM52.291 8.298v10.902h-2.628v-10.902h2.628zM66.922 13.532v0.442c0 0.834-0.118 1.582-0.352 2.246-0.23 0.659-0.557 1.223-0.981 1.692-0.424 0.464-0.926 0.821-1.505 1.071-0.579 0.245-1.218 0.367-1.917 0.367-0.704 0-1.348-0.122-1.932-0.367-0.579-0.25-1.083-0.606-1.513-1.071-0.424-0.469-0.754-1.033-0.988-1.692-0.23-0.664-0.344-1.413-0.344-2.246v-0.442c0-0.834 0.115-1.582 0.344-2.246 0.235-0.664 0.562-1.228 0.981-1.692 0.424-0.469 0.926-0.826 1.505-1.071 0.584-0.25 1.228-0.374 1.932-0.374 0.699 0 1.338 0.125 1.917 0.374 0.584 0.245 1.088 0.602 1.512 1.071 0.424 0.464 0.754 1.028 0.989 1.692s0.352 1.413 0.352 2.246zM64.257 13.974v-0.457c0-0.539-0.048-1.013-0.143-1.423-0.090-0.414-0.224-0.761-0.404-1.041s-0.402-0.489-0.666-0.629c-0.26-0.145-0.557-0.217-0.891-0.217-0.349 0-0.654 0.072-0.914 0.217-0.26 0.14-0.477 0.349-0.651 0.629s-0.307 0.627-0.397 1.041c-0.085 0.409-0.127 0.884-0.127 1.423v0.457c0 0.534 0.042 1.008 0.127 1.423 0.090 0.409 0.222 0.756 0.397 1.041 0.18 0.285 0.399 0.499 0.659 0.644 0.265 0.145 0.572 0.217 0.921 0.217 0.334 0 0.631-0.072 0.891-0.217s0.477-0.359 0.651-0.644c0.18-0.285 0.315-0.631 0.404-1.041 0.095-0.414 0.143-0.889 0.143-1.423zM68.486 8.298h4.291c0.838 0 1.567 0.125 2.186 0.374s1.096 0.619 1.43 1.108c0.339 0.489 0.509 1.093 0.509 1.812 0 0.624-0.097 1.146-0.292 1.565s-0.467 0.766-0.816 1.041c-0.344 0.27-0.746 0.492-1.206 0.666l-0.861 0.487h-3.602l-0.015-2.029h2.666c0.335 0 0.611-0.060 0.831-0.18s0.384-0.29 0.494-0.509c0.115-0.225 0.172-0.492 0.172-0.801 0-0.315-0.058-0.584-0.172-0.809s-0.285-0.397-0.509-0.517c-0.22-0.12-0.492-0.18-0.816-0.18h-1.662v8.873h-2.628v-10.902zM74.454 19.2l-2.412-4.822 2.786-0.015 2.441 4.725v0.112h-2.815zM86.195 17.178v2.022h-5.811v-2.022h5.811zM81.32 8.298v10.902h-2.628v-10.902h2.628zM85.446 12.626v1.954h-5.062v-1.954h5.062zM86.217 8.298v2.029h-5.833v-2.029h5.833zM23.488 20.458v10.902h-2.621v-10.902h2.621zM34.644 20.458v10.902h-2.621l-3.856-6.784v6.784h-2.628v-10.902h2.628l3.856 6.784v-6.784h2.621zM40.049 31.36h-2.419l0.015-2.022h2.404c0.499 0 0.921-0.12 1.265-0.359 0.349-0.24 0.614-0.597 0.794-1.071 0.185-0.479 0.277-1.068 0.277-1.767v-0.472c0-0.524-0.052-0.983-0.157-1.378-0.1-0.399-0.25-0.731-0.449-0.996-0.2-0.27-0.449-0.472-0.749-0.606-0.295-0.135-0.634-0.202-1.018-0.202h-2.426v-2.029h2.426c0.739 0 1.415 0.127 2.029 0.382 0.619 0.25 1.153 0.609 1.602 1.078 0.454 0.464 0.804 1.016 1.048 1.655 0.25 0.634 0.374 1.338 0.374 2.112v0.457c0 0.769-0.125 1.473-0.374 2.112-0.245 0.639-0.592 1.191-1.041 1.655s-0.981 0.824-1.595 1.078c-0.609 0.25-1.278 0.374-2.007 0.374zM39.136 20.458v10.902h-2.628v-10.902h2.628zM55.863 25.692v0.442c0 0.834-0.117 1.582-0.352 2.246-0.23 0.659-0.557 1.223-0.981 1.692-0.424 0.464-0.926 0.821-1.505 1.071-0.579 0.245-1.218 0.367-1.917 0.367-0.704 0-1.348-0.122-1.932-0.367-0.579-0.25-1.083-0.606-1.513-1.071-0.424-0.469-0.754-1.033-0.988-1.692-0.23-0.664-0.344-1.413-0.344-2.246v-0.442c0-0.834 0.115-1.582 0.344-2.246 0.235-0.664 0.562-1.228 0.981-1.692 0.424-0.469 0.926-0.826 1.505-1.071 0.584-0.25 1.228-0.374 1.932-0.374 0.699 0 1.338 0.125 1.917 0.374 0.584 0.245 1.088 0.602 1.513 1.071 0.424 0.464 0.754 1.028 0.988 1.692s0.352 1.413 0.352 2.246zM53.197 26.134v-0.457c0-0.539-0.047-1.013-0.142-1.423-0.090-0.414-0.225-0.761-0.404-1.041s-0.402-0.489-0.666-0.629c-0.26-0.145-0.557-0.217-0.891-0.217-0.349 0-0.654 0.072-0.913 0.217-0.26 0.14-0.477 0.349-0.651 0.629s-0.307 0.627-0.397 1.041c-0.085 0.409-0.127 0.884-0.127 1.423v0.457c0 0.534 0.042 1.008 0.127 1.423 0.090 0.409 0.222 0.756 0.397 1.041 0.18 0.285 0.399 0.499 0.659 0.644 0.265 0.145 0.572 0.217 0.921 0.217 0.334 0 0.632-0.072 0.891-0.217s0.477-0.359 0.651-0.644c0.18-0.285 0.315-0.631 0.404-1.041 0.095-0.414 0.142-0.889 0.142-1.423zM66.532 20.458v10.902h-2.621l-3.856-6.784v6.784h-2.628v-10.902h2.628l3.856 6.784v-6.784h2.621zM75.9 29.338v2.022h-5.811v-2.022h5.811zM71.025 20.458v10.902h-2.628v-10.902h2.628zM75.151 24.786v1.954h-5.062v-1.954h5.062zM75.922 20.458v2.029h-5.833v-2.029h5.833zM82.795 28.462c0-0.17-0.025-0.322-0.075-0.457-0.050-0.14-0.142-0.27-0.277-0.389s-0.329-0.24-0.584-0.359c-0.25-0.125-0.579-0.255-0.988-0.389-0.479-0.16-0.941-0.339-1.386-0.539-0.444-0.205-0.841-0.442-1.19-0.711-0.349-0.275-0.627-0.594-0.831-0.958-0.205-0.369-0.307-0.799-0.307-1.288 0-0.469 0.104-0.891 0.314-1.265 0.21-0.379 0.502-0.701 0.876-0.966 0.38-0.27 0.824-0.474 1.332-0.614 0.509-0.145 1.066-0.217 1.67-0.217 0.799 0 1.503 0.14 2.112 0.419 0.614 0.275 1.093 0.666 1.437 1.176 0.349 0.504 0.524 1.101 0.524 1.79h-2.613c0-0.275-0.058-0.517-0.172-0.726-0.11-0.21-0.277-0.374-0.502-0.494s-0.507-0.18-0.846-0.18c-0.33 0-0.607 0.050-0.831 0.15s-0.394 0.235-0.509 0.404c-0.115 0.165-0.172 0.347-0.172 0.547 0 0.165 0.045 0.314 0.135 0.449 0.095 0.13 0.227 0.252 0.397 0.367 0.175 0.115 0.385 0.225 0.629 0.329 0.25 0.105 0.529 0.207 0.838 0.307 0.579 0.185 1.093 0.392 1.542 0.622 0.454 0.225 0.836 0.482 1.146 0.771 0.315 0.285 0.552 0.609 0.712 0.973 0.164 0.364 0.247 0.776 0.247 1.235 0 0.489-0.095 0.923-0.285 1.303s-0.461 0.701-0.816 0.966c-0.355 0.26-0.779 0.457-1.273 0.592s-1.046 0.202-1.655 0.202c-0.559 0-1.11-0.070-1.654-0.21-0.539-0.145-1.028-0.364-1.468-0.659-0.44-0.299-0.791-0.681-1.056-1.146-0.259-0.469-0.389-1.026-0.389-1.67h2.636c0 0.32 0.042 0.589 0.127 0.809s0.209 0.397 0.374 0.532c0.164 0.13 0.367 0.225 0.607 0.285 0.239 0.055 0.514 0.082 0.823 0.082 0.335 0 0.604-0.047 0.809-0.142 0.205-0.1 0.355-0.23 0.449-0.389 0.095-0.165 0.142-0.344 0.142-0.539zM89.773 20.458v10.902h-2.621v-10.902h2.621zM96.579 22.749l-2.658 8.611h-2.823l4.006-10.902h1.789l-0.314 2.291zM98.78 31.36l-2.666-8.611-0.344-2.291h1.812l4.028 10.902h-2.831zM98.676 27.294v2.029h-5.594v-2.029h5.594z"></path>
</symbol>
<symbol id="icon-menu" viewBox="0 0 36 32">
<path d="M6.554 24h24.013v-2.667h-24.013v2.667zM6.554 17.333h24.013v-2.667h-24.013v2.667zM6.554 8v2.667h24.013v-2.667h-24.013z"></path>
</symbol>
<symbol id="icon-search" viewBox="0 0 33 32">
<path d="M21.841 18.667h-1.053l-0.373-0.36c1.307-1.52 2.093-3.493 2.093-5.64 0-4.787-3.88-8.667-8.667-8.667s-8.667 3.88-8.667 8.667c0 4.787 3.88 8.667 8.667 8.667 2.147 0 4.12-0.787 5.64-2.093l0.36 0.373v1.053l6.667 6.653 1.987-1.987-6.653-6.667zM13.841 18.667c-3.32 0-6-2.68-6-6s2.68-6 6-6c3.32 0 6 2.68 6 6s-2.68 6-6 6z"></path>
</symbol>
</defs>
</svg>
