<svg aria-hidden="true" style="position: absolute; width: 0; height: 0; overflow: hidden;" version="1.1" xmlns="http://www.w3.org/2000/svg" xmlns:xlink="http://www.w3.org/1999/xlink">
<defs>
<symbol id="icon-footer-logo" viewBox="0 0 84 32">
<path fill="#fff" style="fill: var(--color1, #fff)" d="M18.545 7.728v-3.863c0-0.427-0.346-0.773-0.773-0.773h-0.773v-2.318c0-0.427-0.346-0.773-0.773-0.773-1.094 0-2.769-0.084-4.736 1.094-1.223-0.364-2.087-0.322-2.991-0.322-0.427 0-0.773 0.346-0.773 0.773v1.545h-0.773c-0.427 0-0.773 0.346-0.773 0.773v3.863c0 3.147 2.364 5.752 5.409 6.133v10.093c0 0.427 0.346 0.773 0.773 0.773s0.773-0.346 0.773-0.773v-2.704h1.159c2.343 0 4.25-1.906 4.25-4.25v-1.159c0-0.427-0.346-0.773-0.773-0.773h-1.932c-1.026 0-1.969 0.366-2.704 0.974v-2.182c3.041-0.377 5.409-2.969 5.409-6.133zM17 7.728c0 1.375-0.608 2.617-1.569 3.469 0.015-0.124 0.024-0.25 0.024-0.378 0-1.957-0.732-3.746-1.935-5.108 1.020-0.696 2.23-1.073 3.48-1.073v3.091zM15.454 1.547v1.701c-0.143 0.029-0.285 0.062-0.425 0.099-0.501-0.561-1.073-1.039-1.697-1.425 0.675-0.247 1.391-0.375 2.122-0.375zM9.273 2.319c1.535 0 3.026 0.561 4.185 1.632-0.383 0.197-0.75 0.428-1.097 0.689-0.898-0.675-1.948-1.16-3.088-1.392v-0.928zM7.728 7.728v-3.091c3.408 0 6.181 2.773 6.181 6.181 0 0.863-0.713 1.567-1.586 1.545-2.715-0.067-4.596-2.224-4.596-4.635zM15.841 16.614h1.159v0.386c0 1.491-1.213 2.704-2.704 2.704h-1.159v-0.386c0-1.491 1.213-2.704 2.704-2.704z"></path>
<path fill="#dd2242" style="fill: var(--color2, #dd2242)" d="M28.049 10.076h-3.131v1.968h3.698v1.532h-5.69v-8.259h5.701v1.537h-3.71v1.741h3.131v1.481zM32.661 8.062l1.35-2.745h2.275l-2.309 4.096 2.371 4.164h-2.297l-1.39-2.797-1.39 2.797h-2.292l2.365-4.164-2.303-4.096h2.269l1.35 2.745zM39.144 10.774v2.802h-1.991v-8.259h3.296c0.632 0 1.189 0.117 1.673 0.352 0.488 0.231 0.864 0.562 1.129 0.993 0.269 0.427 0.403 0.913 0.403 1.458 0 0.805-0.289 1.45-0.868 1.934-0.575 0.48-1.365 0.72-2.371 0.72h-1.271zM39.144 9.236h1.305c0.386 0 0.679-0.096 0.879-0.289 0.204-0.193 0.306-0.465 0.306-0.817 0-0.386-0.104-0.694-0.312-0.925s-0.492-0.348-0.851-0.352h-1.327v2.382zM46.864 12.044h3.466v1.532h-5.457v-8.259h1.991v6.728zM57.953 9.616c0 0.806-0.149 1.518-0.448 2.139s-0.724 1.099-1.277 1.435c-0.548 0.333-1.174 0.499-1.877 0.499s-1.328-0.161-1.872-0.482c-0.544-0.325-0.97-0.788-1.276-1.39-0.303-0.601-0.462-1.291-0.477-2.070v-0.465c0-0.809 0.147-1.522 0.442-2.139 0.299-0.62 0.724-1.099 1.277-1.435 0.556-0.337 1.187-0.505 1.894-0.505 0.7 0 1.324 0.166 1.872 0.499s0.974 0.807 1.277 1.424c0.306 0.613 0.461 1.316 0.465 2.11v0.38zM55.928 9.27c0-0.821-0.138-1.443-0.414-1.866-0.272-0.427-0.664-0.641-1.174-0.641-0.998 0-1.526 0.749-1.583 2.246l-0.006 0.607c0 0.809 0.134 1.431 0.403 1.866s0.668 0.652 1.197 0.652c0.503 0 0.891-0.214 1.163-0.641s0.41-1.042 0.414-1.844v-0.38zM62.202 10.66h-1.078v2.916h-1.991v-8.259h3.25c0.979 0 1.745 0.217 2.297 0.652s0.828 1.049 0.828 1.844c0 0.575-0.117 1.051-0.352 1.429-0.231 0.378-0.594 0.684-1.089 0.919l1.725 3.33v0.085h-2.133l-1.458-2.916zM61.124 9.123h1.26c0.378 0 0.662-0.098 0.851-0.295 0.193-0.2 0.289-0.478 0.289-0.834s-0.096-0.633-0.289-0.834c-0.193-0.204-0.477-0.306-0.851-0.306h-1.26v2.269zM71.986 10.076h-3.131v1.968h3.698v1.532h-5.689v-8.259h5.701v1.537h-3.71v1.741h3.131v1.481z"></path>
<path fill="#fff" style="fill: var(--color1, #fff)" d="M25.049 24.242h-1.985v-8.259h1.985v8.259zM33.483 24.242h-1.98l-2.927-5.139v5.139h-1.991v-8.259h1.991l2.921 5.139v-5.139h1.985v8.259zM34.895 24.242v-8.259h2.66c0.73 0 1.386 0.166 1.968 0.499 0.582 0.329 1.036 0.796 1.361 1.401 0.329 0.601 0.495 1.276 0.499 2.025v0.38c0 0.756-0.161 1.435-0.482 2.036-0.318 0.597-0.768 1.066-1.35 1.407-0.579 0.337-1.225 0.507-1.94 0.511h-2.717zM36.886 17.521v5.19h0.692c0.571 0 1.010-0.202 1.316-0.607 0.306-0.408 0.459-1.013 0.459-1.815v-0.357c0-0.798-0.153-1.399-0.459-1.804s-0.753-0.607-1.339-0.607h-0.669zM49.553 20.283c0 0.806-0.15 1.518-0.449 2.139s-0.724 1.099-1.276 1.435c-0.548 0.333-1.174 0.499-1.878 0.499s-1.327-0.161-1.872-0.482c-0.545-0.325-0.97-0.788-1.276-1.39-0.303-0.601-0.461-1.291-0.477-2.070v-0.465c0-0.809 0.148-1.522 0.442-2.139 0.299-0.62 0.724-1.099 1.276-1.435 0.556-0.337 1.187-0.505 1.895-0.505 0.7 0 1.324 0.166 1.872 0.499s0.974 0.807 1.276 1.424c0.306 0.613 0.462 1.316 0.465 2.11v0.38zM47.528 19.937c0-0.821-0.138-1.443-0.414-1.866-0.272-0.427-0.664-0.641-1.174-0.641-0.998 0-1.526 0.749-1.583 2.246l-0.006 0.607c0 0.809 0.134 1.431 0.403 1.866s0.667 0.652 1.197 0.652c0.503 0 0.891-0.214 1.163-0.641s0.41-1.042 0.414-1.844v-0.38zM57.63 24.242h-1.98l-2.927-5.139v5.139h-1.991v-8.259h1.991l2.921 5.139v-5.139h1.985v8.259zM64.164 20.742h-3.131v1.968h3.698v1.532h-5.689v-8.259h5.701v1.537h-3.71v1.741h3.131v1.481zM69.956 22.047c0-0.291-0.104-0.518-0.312-0.681-0.204-0.163-0.565-0.331-1.083-0.505s-0.942-0.342-1.271-0.505c-1.070-0.526-1.605-1.248-1.605-2.167 0-0.458 0.132-0.86 0.397-1.208 0.269-0.352 0.647-0.624 1.135-0.817 0.488-0.197 1.036-0.295 1.645-0.295 0.593 0 1.125 0.106 1.594 0.318 0.473 0.212 0.84 0.514 1.101 0.908 0.261 0.39 0.391 0.836 0.391 1.339h-1.985c0-0.337-0.104-0.597-0.312-0.783-0.204-0.185-0.482-0.278-0.834-0.278-0.355 0-0.637 0.079-0.845 0.238-0.204 0.155-0.306 0.354-0.306 0.596 0 0.212 0.113 0.405 0.34 0.579 0.227 0.17 0.626 0.348 1.197 0.533 0.571 0.182 1.040 0.378 1.407 0.59 0.893 0.514 1.339 1.223 1.339 2.127 0 0.722-0.272 1.29-0.817 1.702s-1.292 0.618-2.241 0.618c-0.669 0-1.276-0.119-1.821-0.357-0.541-0.242-0.949-0.571-1.225-0.987-0.272-0.42-0.409-0.902-0.409-1.447h1.997c0 0.442 0.113 0.77 0.34 0.981 0.23 0.208 0.603 0.312 1.117 0.312 0.329 0 0.588-0.070 0.777-0.21 0.193-0.144 0.289-0.344 0.289-0.601zM75.242 24.242h-1.985v-8.259h1.985v8.259zM81.572 22.7h-2.728l-0.477 1.543h-2.127l3.029-8.259h1.872l3.052 8.259h-2.138l-0.482-1.543zM79.321 21.162h1.775l-0.89-2.865-0.885 2.865z"></path>
</symbol>
<symbol id="icon-google" viewBox="0 0 32 32">
<path d="M25.167 14.137h-8.97c0 0.933 0 2.798-0.006 3.731h5.198c-0.199 0.933-0.905 2.239-1.903 2.896-0.001-0.001-0.002 0.006-0.004 0.005-1.327 0.876-3.077 1.075-4.377 0.813-2.037-0.405-3.65-1.882-4.305-3.759 0.004-0.003 0.007-0.029 0.010-0.031-0.41-1.164-0.41-2.723 0-3.656h-0.001c0.528-1.714 2.189-3.279 4.229-3.707 1.641-0.348 3.493 0.029 4.855 1.303 0.181-0.177 2.506-2.448 2.681-2.632-4.653-4.213-12.102-2.731-14.89 2.71h-0.001c0 0 0.001 0-0.005 0.010-1.379 2.673-1.322 5.822 0.010 8.366-0.004 0.003-0.007 0.005-0.010 0.007 1.206 2.341 3.402 4.137 6.048 4.821 2.81 0.737 6.387 0.233 8.783-1.934 0.001 0.001 0.002 0.002 0.003 0.003 2.030-1.828 3.294-4.943 2.655-8.947z"></path>
</symbol>
<symbol id="icon-linkedin" viewBox="0 0 32 32">
<path d="M26.667 25.333h-4.103v-7.471c0-2.049-0.869-3.193-2.427-3.193-1.695 0-2.702 1.191-2.702 3.193v7.471h-4.103v-13.877h4.103v1.561c0 0 1.287-2.351 4.188-2.351s5.043 1.842 5.043 5.655c0 3.812 0 9.011 0 9.011zM7.334 8c-1.105 0-2-0.896-2-2s0.895-2 2-2c1.104 0 2 0.896 2 2s-0.895 2-2 2zM5.333 25.333h4v-13.333h-4v13.333z"></path>
</symbol>
<symbol id="icon-facebook" viewBox="0 0 32 32">
<path d="M17.943 25.333v-9h2.915l0.476-4h-3.391v-1.948c0-1.030 0.028-2.052 1.563-2.052h1.555v-2.86c0-0.043-1.336-0.14-2.687-0.14-2.822 0-4.589 1.657-4.589 4.7v2.3h-3.118v4h3.118v9h4.158z"></path>
</symbol>
<symbol id="icon-arrow" viewBox="0 0 20 32">
<path d="M8.098 16.186l9.999 9.999c1.302 1.302 1.302 3.412 0 4.714s-3.412 1.302-4.714 0l-12.406-12.406c-1.302-1.302-1.302-3.412 0-4.714 0.167-0.167 0.347-0.313 0.538-0.437l12.365-12.365c1.302-1.302 3.412-1.302 4.714 0s1.302 3.412 0 4.714l-10.496 10.495z"></path>
</symbol>
<symbol id="icon-play-arrow" viewBox="0 0 33 32">
<path d="M10.679 6.667v18.667l14.674-9.333-14.674-9.333z"></path>
</symbol>
<symbol id="icon-up-arrow" viewBox="0 0 55 32">
<path d="M52.884 24.186c1.498 1.498 1.498 3.928 0 5.426s-3.928 1.498-5.426 0l-20.454-20.454-20.454 20.454c-1.498 1.498-3.928 1.498-5.426 0s-1.498-3.928 0-5.426l23.062-23.062c0.775-0.775 1.8-1.149 2.815-1.122 1.018-0.029 2.045 0.345 2.822 1.122l23.062 23.062z"></path>
</symbol>
<symbol id="icon-logo" viewBox="0 0 102 32">
<path d="M15.861 9.801v-4.9c0-0.541-0.439-0.98-0.98-0.98h-0.98v-2.94c0-0.541-0.439-0.98-0.98-0.98-1.388 0-3.514-0.106-6.009 1.388-1.551-0.462-2.648-0.408-3.795-0.408-0.542 0-0.98 0.439-0.98 0.98v1.96h-0.98c-0.542 0-0.98 0.439-0.98 0.98v4.9c0 3.991 2.999 7.295 6.863 7.778v12.8c0 0.541 0.439 0.98 0.98 0.98s0.98-0.439 0.98-0.98v-3.43h1.471c2.973 0 5.393-2.418 5.393-5.39v-1.47c0-0.541-0.439-0.98-0.98-0.98h-2.451c-1.303 0-2.499 0.464-3.432 1.235v-2.767c3.858-0.478 6.863-3.765 6.863-7.778v0zM13.9 9.801c0 1.744-0.772 3.319-1.991 4.399 0.019-0.157 0.030-0.317 0.030-0.479 0-2.482-0.928-4.75-2.455-6.479 1.295-0.883 2.83-1.361 4.416-1.361v3.92zM11.939 1.962v2.158c-0.181 0.037-0.361 0.079-0.54 0.126-0.636-0.712-1.361-1.318-2.153-1.808 0.856-0.313 1.765-0.476 2.693-0.476v0zM4.096 2.942c1.948 0 3.839 0.711 5.311 2.069-0.486 0.25-0.951 0.542-1.392 0.873-1.14-0.857-2.472-1.471-3.919-1.766v-1.177zM2.135 9.801v-3.92c4.325 0 7.844 3.517 7.844 7.84 0 1.095-0.905 1.987-2.012 1.959-3.444-0.085-5.831-2.82-5.831-5.879zM12.43 21.071h1.471v0.49c0 1.891-1.539 3.43-3.432 3.43h-1.471v-0.49c0-1.891 1.539-3.43 3.432-3.43z"></path>
<path d="M28.197 17.178v2.022h-5.81v-2.022h5.81zM23.323 8.298v10.902h-2.628v-10.902h2.628zM27.448 12.626v1.954h-5.062v-1.954h5.062zM28.22 8.298v2.029h-5.833v-2.029h5.833zM31.761 8.298l1.782 3.624 1.782-3.624h2.995l-3.040 5.406 3.122 5.496h-3.025l-1.834-3.691-1.834 3.691h-3.032l3.13-5.496-3.047-5.406h3.003zM43.823 15.501h-2.711v-2.029h2.711c0.369 0 0.669-0.062 0.899-0.187s0.397-0.297 0.502-0.517c0.11-0.225 0.165-0.477 0.165-0.756 0-0.3-0.055-0.577-0.165-0.831-0.105-0.255-0.272-0.459-0.502-0.614-0.23-0.16-0.529-0.24-0.899-0.24h-1.722v8.873h-2.628v-10.902h4.35c0.874 0 1.625 0.16 2.254 0.479 0.634 0.319 1.121 0.759 1.46 1.318 0.339 0.554 0.509 1.188 0.509 1.902 0 0.704-0.17 1.318-0.509 1.842s-0.826 0.933-1.46 1.228c-0.629 0.29-1.38 0.434-2.254 0.434zM56.866 17.178v2.022h-5.511v-2.022h5.511zM52.291 8.298v10.902h-2.628v-10.902h2.628zM66.922 13.532v0.442c0 0.834-0.118 1.582-0.352 2.246-0.23 0.659-0.557 1.223-0.981 1.692-0.424 0.464-0.926 0.821-1.505 1.071-0.579 0.245-1.218 0.367-1.917 0.367-0.704 0-1.348-0.122-1.932-0.367-0.579-0.25-1.083-0.606-1.513-1.071-0.424-0.469-0.754-1.033-0.988-1.692-0.23-0.664-0.344-1.413-0.344-2.246v-0.442c0-0.834 0.115-1.582 0.344-2.246 0.235-0.664 0.562-1.228 0.981-1.692 0.424-0.469 0.926-0.826 1.505-1.071 0.584-0.25 1.228-0.374 1.932-0.374 0.699 0 1.338 0.125 1.917 0.374 0.584 0.245 1.088 0.602 1.512 1.071 0.424 0.464 0.754 1.028 0.989 1.692s0.352 1.413 0.352 2.246zM64.257 13.974v-0.457c0-0.539-0.048-1.013-0.143-1.423-0.090-0.414-0.224-0.761-0.404-1.041s-0.402-0.489-0.666-0.629c-0.26-0.145-0.557-0.217-0.891-0.217-0.349 0-0.654 0.072-0.914 0.217-0.26 0.14-0.477 0.349-0.651 0.629s-0.307 0.627-0.397 1.041c-0.085 0.409-0.127 0.884-0.127 1.423v0.457c0 0.534 0.042 1.008 0.127 1.423 0.090 0.409 0.222 0.756 0.397 1.041 0.18 0.285 0.399 0.499 0.659 0.644 0.265 0.145 0.572 0.217 0.921 0.217 0.334 0 0.631-0.072 0.891-0.217s0.477-0.359 0.651-0.644c0.18-0.285 0.315-0.631 0.404-1.041 0.095-0.414 0.143-0.889 0.143-1.423zM68.486 8.298h4.291c0.838 0 1.567 0.125 2.186 0.374s1.096 0.619 1.43 1.108c0.339 0.489 0.509 1.093 0.509 1.812 0 0.624-0.097 1.146-0.292 1.565s-0.467 0.766-0.816 1.041c-0.344 0.27-0.746 0.492-1.206 0.666l-0.861 0.487h-3.602l-0.015-2.029h2.666c0.335 0 0.611-0.060 0.831-0.18s0.384-0.29 0.494-0.509c0.115-0.225 0.172-0.492 0.172-0.801 0-0.315-0.058-0.584-0.172-0.809s-0.285-0.397-0.509-0.517c-0.22-0.12-0.492-0.18-0.816-0.18h-1.662v8.873h-2.628v-10.902zM74.454 19.2l-2.412-4.822 2.786-0.015 2.441 4.725v0.112h-2.815zM86.195 17.178v2.022h-5.811v-2.022h5.811zM81.32 8.298v10.902h-2.628v-10.902h2.628zM85.446 12.626v1.954h-5.062v-1.954h5.062zM86.217 8.298v2.029h-5.833v-2.029h5.833zM23.488 20.458v10.902h-2.621v-10.902h2.621zM34.644 20.458v10.902h-2.621l-3.856-6.784v6.784h-2.628v-10.902h2.628l3.856 6.784v-6.784h2.621zM40.049 31.36h-2.419l0.015-2.022h2.404c0.499 0 0.921-0.12 1.265-0.359 0.349-0.24 0.614-0.597 0.794-1.071 0.185-0.479 0.277-1.068 0.277-1.767v-0.472c0-0.524-0.052-0.983-0.157-1.378-0.1-0.399-0.25-0.731-0.449-0.996-0.2-0.27-0.449-0.472-0.749-0.606-0.295-0.135-0.634-0.202-1.018-0.202h-2.426v-2.029h2.426c0.739 0 1.415 0.127 2.029 0.382 0.619 0.25 1.153 0.609 1.602 1.078 0.454 0.464 0.804 1.016 1.048 1.655 0.25 0.634 0.374 1.338 0.374 2.112v0.457c0 0.769-0.125 1.473-0.374 2.112-0.245 0.639-0.592 1.191-1.041 1.655s-0.981 0.824-1.595 1.078c-0.609 0.25-1.278 0.374-2.007 0.374zM39.136 20.458v10.902h-2.628v-10.902h2.628zM55.863 25.692v0.442c0 0.834-0.117 1.582-0.352 2.246-0.23 0.659-0.557 1.223-0.981 1.692-0.424 0.464-0.926 0.821-1.505 1.071-0.579 0.245-1.218 0.367-1.917 0.367-0.704 0-1.348-0.122-1.932-0.367-0.579-0.25-1.083-0.606-1.513-1.071-0.424-0.469-0.754-1.033-0.988-1.692-0.23-0.664-0.344-1.413-0.344-2.246v-0.442c0-0.834 0.115-1.582 0.344-2.246 0.235-0.664 0.562-1.228 0.981-1.692 0.424-0.469 0.926-0.826 1.505-1.071 0.584-0.25 1.228-0.374 1.932-0.374 0.699 0 1.338 0.125 1.917 0.374 0.584 0.245 1.088 0.602 1.513 1.071 0.424 0.464 0.754 1.028 0.988 1.692s0.352 1.413 0.352 2.246zM53.197 26.134v-0.457c0-0.539-0.047-1.013-0.142-1.423-0.090-0.414-0.225-0.761-0.404-1.041s-0.402-0.489-0.666-0.629c-0.26-0.145-0.557-0.217-0.891-0.217-0.349 0-0.654 0.072-0.913 0.217-0.26 0.14-0.477 0.349-0.651 0.629s-0.307 0.627-0.397 1.041c-0.085 0.409-0.127 0.884-0.127 1.423v0.457c0 0.534 0.042 1.008 0.127 1.423 0.090 0.409 0.222 0.756 0.397 1.041 0.18 0.285 0.399 0.499 0.659 0.644 0.265 0.145 0.572 0.217 0.921 0.217 0.334 0 0.632-0.072 0.891-0.217s0.477-0.359 0.651-0.644c0.18-0.285 0.315-0.631 0.404-1.041 0.095-0.414 0.142-0.889 0.142-1.423zM66.532 20.458v10.902h-2.621l-3.856-6.784v6.784h-2.628v-10.902h2.628l3.856 6.784v-6.784h2.621zM75.9 29.338v2.022h-5.811v-2.022h5.811zM71.025 20.458v10.902h-2.628v-10.902h2.628zM75.151 24.786v1.954h-5.062v-1.954h5.062zM75.922 20.458v2.029h-5.833v-2.029h5.833zM82.795 28.462c0-0.17-0.025-0.322-0.075-0.457-0.050-0.14-0.142-0.27-0.277-0.389s-0.329-0.24-0.584-0.359c-0.25-0.125-0.579-0.255-0.988-0.389-0.479-0.16-0.941-0.339-1.386-0.539-0.444-0.205-0.841-0.442-1.19-0.711-0.349-0.275-0.627-0.594-0.831-0.958-0.205-0.369-0.307-0.799-0.307-1.288 0-0.469 0.104-0.891 0.314-1.265 0.21-0.379 0.502-0.701 0.876-0.966 0.38-0.27 0.824-0.474 1.332-0.614 0.509-0.145 1.066-0.217 1.67-0.217 0.799 0 1.503 0.14 2.112 0.419 0.614 0.275 1.093 0.666 1.437 1.176 0.349 0.504 0.524 1.101 0.524 1.79h-2.613c0-0.275-0.058-0.517-0.172-0.726-0.11-0.21-0.277-0.374-0.502-0.494s-0.507-0.18-0.846-0.18c-0.33 0-0.607 0.050-0.831 0.15s-0.394 0.235-0.509 0.404c-0.115 0.165-0.172 0.347-0.172 0.547 0 0.165 0.045 0.314 0.135 0.449 0.095 0.13 0.227 0.252 0.397 0.367 0.175 0.115 0.385 0.225 0.629 0.329 0.25 0.105 0.529 0.207 0.838 0.307 0.579 0.185 1.093 0.392 1.542 0.622 0.454 0.225 0.836 0.482 1.146 0.771 0.315 0.285 0.552 0.609 0.712 0.973 0.164 0.364 0.247 0.776 0.247 1.235 0 0.489-0.095 0.923-0.285 1.303s-0.461 0.701-0.816 0.966c-0.355 0.26-0.779 0.457-1.273 0.592s-1.046 0.202-1.655 0.202c-0.559 0-1.11-0.070-1.654-0.21-0.539-0.145-1.028-0.364-1.468-0.659-0.44-0.299-0.791-0.681-1.056-1.146-0.259-0.469-0.389-1.026-0.389-1.67h2.636c0 0.32 0.042 0.589 0.127 0.809s0.209 0.397 0.374 0.532c0.164 0.13 0.367 0.225 0.607 0.285 0.239 0.055 0.514 0.082 0.823 0.082 0.335 0 0.604-0.047 0.809-0.142 0.205-0.1 0.355-0.23 0.449-0.389 0.095-0.165 0.142-0.344 0.142-0.539zM89.773 20.458v10.902h-2.621v-10.902h2.621zM96.579 22.749l-2.658 8.611h-2.823l4.006-10.902h1.789l-0.314 2.291zM98.78 31.36l-2.666-8.611-0.344-2.291h1.812l4.028 10.902h-2.831zM98.676 27.294v2.029h-5.594v-2.029h5.594z"></path>
</symbol>
<symbol id="icon-menu" viewBox="0 0 36 32">
<path d="M6.554 24h24.013v-2.667h-24.013v2.667zM6.554 17.333h24.013v-2.667h-24.013v2.667zM6.554 8v2.667h24.013v-2.667h-24.013z"></path>
</symbol>
<symbol id="icon-search" viewBox="0 0 33 32">
<path d="M21.841 18.667h-1.053l-0.373-0.36c1.307-1.52 2.093-3.493 2.093-5.64 0-4.787-3.88-8.667-8.667-8.667s-8.667 3.88-8.667 8.667c0 4.787 3.88 8.667 8.667 8.667 2.147 0 4.12-0.787 5.64-2.093l0.36 0.373v1.053l6.667 6.653 1.987-1.987-6.653-6.667zM13.841 18.667c-3.32 0-6-2.68-6-6s2.68-6 6-6c3.32 0 6 2.68 6 6s-2.68 6-6 6z"></path>
</symbol>
</defs>
</svg>
